<svg id="Layer_1" enable-background="new 0 0 512 512" height="512" viewBox="0 0 512 512" width="512" xmlns="http://www.w3.org/2000/svg"><g><g><path d="m301.487 512h55.603c50.895 0 88.557-108.915 86.521-178.131-1.414-48.069 11.9-103.011 20.168-132.097 4.157-14.624 6.298-29.745 6.298-44.949 0-.642 0-1.294 0-1.955-.001-85.53-69.337-154.868-154.868-154.868h-62.815z" fill="#00485b"/></g><path d="m259.606 0h-62.815c-38.374 0-73.487 13.957-100.542 37.071-6.222 5.316 26.817 11.973 21.506 18.199-5.332 6.25-49.01 12.072-53.306 19.121-14.292 23.453-22.525 51.003-22.525 80.476 0 .802.005 1.604.016 2.405.082 6.059 29.301-2.079 30.001 3.927.766 6.572-26.926 27.282-25.435 33.735.639 2.763 1.343 5.512 2.114 8.246 2.318 8.229 4.995 18.378 7.618 29.764 1.28 5.557 33.9 11.101 35.107 17.168.993 4.991-29.408 10.437-28.524 15.676 2.5 14.817 4.456 30.447 5.267 45.889.307 5.846 24.929 16.542 24.874 22.28-.015 1.603-1.031 11.045-1.078 12.633-.139 4.743-23.587-3.05-23.362 2.017.681 15.348 2.993 31.966 6.7 48.528 1.746 7.802 18.364 16.196 20.705 23.834s-9.595 14.521-6.709 21.718c15.598 38.899 38.797 69.313 65.692 69.313 35.766 0 34.836-36.194 35.008-73.962.028-6.094-19.548-7.112-19.304-13.142.369-9.12 20.8-23.118 22.576-31.257.128-.587.261-1.17.4-1.75 2.599-10.87 5.857-21.904 9.327-32.44 1.935-5.877-7.113-18.455-5.123-23.908 1.699-4.655 14.44-2.256 16.075-6.446 5.096-13.061 23.563-13.061 28.659 0 6.983 17.898 43.034 19.971 48.321 42.079 11.197 46.823-23.346 95.837 27.548 95.837s4.836-63.837 2.8-133.054c-1.414-48.069-8.267-18.125 0-47.21 4.157-14.624 13.931-65.753 13.931-80.957 0-.642-4.318-48.992-4.318-49.653 0-85.531 14.326-156.137-71.204-156.137z" fill="#ff865b"/><path d="m259.606 0h-31.684v319.308c5.982-.104 12.018 3.153 14.606 9.786 1.542 3.954 16.512.491 18.114 4.862 2.024 5.523-9.312 18.985-7.338 24.956 3.536 10.698 6.86 21.922 9.503 32.976.125.524.246 1.051.363 1.581 1.699 7.717 17.042 22.883 17.441 31.513.302 6.53-14.162 6.422-14.132 13.043.173 37.773-.762 73.975 35.008 73.975 26.895 0 50.094-30.414 65.693-69.312 2.627-6.55-11.555-10.779-9.378-17.705 2.607-8.294 21.47-19.343 23.374-27.847 3.707-16.562 6.019-33.18 6.7-48.528.225-5.067-17.927-5.832-18.067-10.574-.04-1.354-.068-2.713-.085-4.076-.074-5.974 18.267-16.203 18.587-22.297.811-15.436 2.767-31.06 5.266-45.872.875-5.19-23.047-11.958-22.065-16.906 1.19-5.989 27.303-10.091 28.566-15.586 2.8-12.188 5.667-22.973 8.097-31.524.654-2.3 1.258-4.613 1.811-6.936 1.483-6.224-19.257-20.977-18.506-27.323s22.992-4.284 22.992-10.69v-1.955c0-29.551-8.277-57.169-22.639-80.663-4.169-6.82-54.224-12.083-59.365-18.154-5.485-6.477 33.88-13.707 27.415-19.205-27.018-22.981-62.028-36.847-100.277-36.847z" fill="#ff3b5b"/><g fill="#ffccb3"><path d="m85.598 401.151c-3.05-2.658-6.623-3.971-10.377-4.016 3.431 15.499 8.31 31.207 13.996 45.552 28.213 16.996 73.179 20.922 100.676-4.65.077-15.416.207-30.884 3.297-44.399-44.088 42.282-82.089 29.706-107.592 7.513z"/><path d="m198.517 320.745c-19.327 13.246-40.037 22.642-74.209 13.97-28.435-7.217-52.159-21.229-52.396-21.37-1.249-.746-2.489-1.286-3.825-1.669.423 7.721.494 15.4.273 22.911-.133 4.508-.036 9.216.161 14.02 11.038 5.425 27.877 12.74 46.98 17.667 13.969 3.602 27.078 5.39 39.233 5.39 18.497 0 34.499-4.012 48.182-12.216 3.503-10.573 7.469-20.782 10.923-29.635 2.269-5.816 7.19-9.035 12.4-9.671-7.187-4.178-17.06-6.705-27.722.603z"/><path d="m217.452 104.701c3.027 2.437 6.656 3.621 10.261 3.621 4.787-.001 9.533-2.09 12.769-6.109 5.672-7.046 4.559-17.357-2.488-23.03-48.349-38.922-105.47-43.987-141.745-42.112-12.609 10.607-23.144 23.313-31.844 37.393.873-.075 2.273-.365 3.149-.587.85-.212 85.747-20.82 149.898 30.824z"/><path d="m162.771 163.515c32.242 6.96 55 22.944 55.401 23.229 7.333 5.263 17.55 3.601 22.834-3.723 5.293-7.336 3.636-17.574-3.7-22.867-1.111-.802-27.661-19.735-66.305-28.371-46.561-10.404-90.851-1.579-129.076 25.489.121 12.659 1.79 25.33 4.583 37.662 1.252-.601 2.265-1.444 3.371-2.389 33.113-28.285 71.093-38.05 112.892-29.03z"/><path d="m191.156 247.91c8.121-3.986 11.473-13.8 7.487-21.921-3.986-8.12-13.8-11.471-21.92-7.487-27.418 13.458-96.115 14.984-120.484 14.441 2.343 10.115 4.604 21.22 6.582 32.844 1.064.006 2.05.009 3.286.009 26.748.001 92.163-1.745 125.049-17.886z"/></g><g fill="#ff865b"><path d="m370.799 401.151c3.05-2.658 6.623-3.971 10.377-4.016-3.431 15.499-8.31 31.207-13.996 45.552-28.213 16.996-73.204 20.91-100.702-4.663-.077-15.416-.218-31.039-3.309-44.555 44.089 42.283 82.127 29.875 107.63 7.682z"/><path d="m257.88 320.745c19.327 13.246 40.037 22.642 74.209 13.97 28.435-7.217 52.159-21.229 52.396-21.37 1.249-.746 2.488-1.303 3.823-1.686-.423 7.721-.493 15.417-.272 22.928.133 4.508.036 9.216-.161 14.02-11.038 5.425-27.877 12.74-46.98 17.667-13.969 3.602-27.078 5.39-39.233 5.39-18.497 0-34.499-4.012-48.182-12.216-3.503-10.573-7.469-20.782-10.923-29.635-2.269-5.816-7.19-9.035-12.4-9.671 7.188-4.178 17.061-6.705 27.723.603z"/><path d="m239.454 104.533c-3.027 2.437-6.656 3.621-10.261 3.621-4.787-.001-9.533-2.09-12.769-6.109-5.672-7.046-4.559-17.357 2.488-23.03 48.349-38.922 104.696-44.044 140.971-42.17 12.609 10.607 23.194 23.188 31.894 37.268-.873-.075-1.549-.183-2.426-.404-.849-.212-85.746-20.82-149.897 30.824z"/><path d="m293.626 163.515c-32.242 6.96-55 22.944-55.401 23.229-7.333 5.263-17.55 3.601-22.834-3.723-5.293-7.336-3.636-17.574 3.7-22.867 1.111-.802 27.661-19.735 66.305-28.371 46.561-10.404 90.851-1.579 129.077 25.489-.121 12.659-1.606 25.252-4.398 37.584-1.252-.601-2.45-1.366-3.555-2.311-33.115-28.285-71.095-38.05-112.894-29.03z"/><path d="m265.241 247.91c-8.121-3.986-11.473-13.8-7.487-21.921 3.986-8.12 13.8-11.471 21.92-7.487 27.418 13.458 96.034 15.336 120.403 14.793-2.343 10.115-4.523 20.868-6.501 32.492-1.064.006-2.05.009-3.286.009-26.748.001-92.163-1.745-125.049-17.886z"/></g><path d="m244.131 275.865c0-11.781-7.133-21.332-15.933-21.332s-15.933 9.551-15.933 21.332l-.016 58.032c.539-1.409 1.091-2.742 1.62-4.097 1.429-3.662 3.908-6.297 6.85-7.906 7.55-4.129 18.142-1.493 21.809 7.906.529 1.355 1.065 2.747 1.604 4.156v-58.091z" fill="#ffeee6"/><path d="m228.198 254.533c-.093 0-.184.017-.277.019v65.463c5.982-.104 12.018 3.154 14.606 9.786.529 1.355 1.065 2.747 1.604 4.156v-58.091c0-11.782-7.133-21.333-15.933-21.333z" fill="#ffccb3"/><path d="m228.06 196.367c8.799 0 15.933-7.133 15.933-15.933v-180.434h-31.866v180.435c0 8.799 7.134 15.932 15.933 15.932z" fill="#ffeee6"/><path d="m244.27 180.435v-180.435h-16.21v196.354c.093.002.183.014.277.014 8.799-.001 15.933-7.134 15.933-15.933z" fill="#ffccb3"/><circle cx="228.198" cy="225.097" fill="#fff5f5" r="57.584"/><path d="m228.198 167.513c-.093 0-.184.007-.277.007v115.154c.093 0 .184.007.277.007 31.803 0 57.584-25.781 57.584-57.584.001-31.803-25.781-57.584-57.584-57.584z" fill="#e3dff6"/></g></svg>