<svg height="512" viewBox="0 0 128 128" width="512" xmlns="http://www.w3.org/2000/svg"><g><g>
<path d="m90.5 33.25-17.75-6.713h-17.5l-17.75 6.713-10.963 22.417 12.963 8.333 5.768-9-4 46.463h22.732 22.731l-4-46.463 5.769 9 12.962-8.333z" fill="#49aaa3"/>
<path d="m55.25 26.56a8.75 8.75 0 1 0 17.5 0z" fill="#49aaa3"/></g><g fill="#1b3949">
<path d="m103.035 54.9-10.963-22.419a1.755 1.755 0 0 0 -.953-.868l-17.75-6.713a1.744 1.744 0 0 0 -.619-.113h-17.5a1.748 1.748 0 0 0 -.619.113l-17.75 6.712a1.75 1.75 0 0 0 1.238 3.274l15.669-5.926a10.491 10.491 0 0 0 17.412 5.245 1.75 1.75 0 0 0 -2.4-2.548 7 7 0 0 1 -11.579-3.369h15.209l16.8 6.354 9.975 20.395-11.651 7.491a1.75 1.75 0 1 0 1.892 2.944l12.963-8.333a1.751 1.751 0 0 0 .626-2.239z"/>
<path d="m82.581 53.256a1.75 1.75 0 0 0 -1.593 1.894l3.836 44.562h-20.824a1.75 1.75 0 1 0 0 3.5h22.731a1.748 1.748 0 0 0 1.744-1.9l-4-46.463a1.74 1.74 0 0 0 -1.894-1.593z"/>
<path d="m56.634 99.712h-13.458l3.836-44.562a1.75 1.75 0 0 0 -3.212-1.094l-4.828 7.524-10.178-6.543 4.016-8.212a1.75 1.75 0 1 0 -3.144-1.538l-4.7 9.61a1.753 1.753 0 0 0 .626 2.242l12.963 8.333a1.748 1.748 0 0 0 2.419-.528l1.944-3.032-3.392 39.4a1.748 1.748 0 0 0 1.744 1.9h15.364a1.75 1.75 0 0 0 0-3.5z"/>
<path d="m33.562 41.3a1.748 1.748 0 0 0 2.341-.8l.639-1.307a1.75 1.75 0 1 0 -3.142-1.54l-.639 1.306a1.749 1.749 0 0 0 .801 2.341z"/></g></g></svg>